<svg xmlns="http://www.w3.org/2000/svg" version="1.1" xmlns:xlink="http://www.w3.org/1999/xlink" xmlns:svgjs="http://svgjs.com/svgjs" width="512" height="512"><svg version="1.1" id="SvgjsSvg1000" xmlns="http://www.w3.org/2000/svg" xmlns:xlink="http://www.w3.org/1999/xlink" x="0px" y="0px" viewBox="0 0 512 512" style="enable-background:new 0 0 512 512;" xml:space="preserve">
<g>
	<g>
		<path d="M404.322,0H107.677c-24.813,0-45,20.187-45,45v422c0,24.813,20.187,45,45,45h296.645c24.813,0,45-20.187,45-45V45
			C449.322,20.187,429.134,0,404.322,0z M123.77,88.35c0-6.6,5.4-12,12-12h244.473c6.6,0,12,5.4,12,12v45.749
			c0.001,6.6-5.399,12-11.999,12H135.77c-6.6,0-12-5.4-12-12V88.35z M270.027,252.395h-28.053c-8.285,0-15-6.716-15-15v-20.383
			c0-8.284,6.716-15,15-15h28.053c8.284,0,15,6.716,15,15v20.383C285.027,245.679,278.311,252.395,270.027,252.395z
			 M285.027,313.634v20.383c0,8.284-6.716,15-15,15h-28.053c-8.284,0-15-6.716-15-15v-20.383c0-8.285,6.715-15,15-15h28.053
			C278.311,298.634,285.027,305.35,285.027,313.634z M177.807,430.639c0,8.284-6.716,15-15,15h-28.053c-8.284,0-15-6.716-15-15
			v-20.383c0-8.284,6.716-15,15-15h28.053c8.284,0,15,6.715,15,15V430.639z M177.807,334.017c0,8.284-6.716,15-15,15h-28.053
			c-8.284,0-15-6.716-15-15v-20.383c0-8.284,6.716-15,15-15h28.053c8.284,0,15,6.716,15,15V334.017z M177.807,237.395
			c0,8.284-6.716,15-15,15h-28.053c-8.284,0-15-6.716-15-15v-20.383c0-8.284,6.716-15,15-15h28.053c8.284,0,15,6.716,15,15V237.395z
			 M392.244,430.639c0,8.284-6.716,15-15,15H241.973c-8.284,0-15-6.716-15-15v-20.383c0-8.285,6.715-15,15-15h135.271
			c8.284,0,15,6.716,15,15V430.639z M392.244,334.017c0,8.284-6.716,15-15,15h-28.053c-8.284,0-15-6.716-15-15v-20.383
			c0-8.284,6.716-15,15-15h28.053c8.284,0,15,6.716,15,15V334.017z M392.244,237.395c0,8.284-6.716,15-15,15h-28.053
			c-8.284,0-15-6.716-15-15v-20.383c0-8.284,6.716-15,15-15h28.053c8.284,0,15,6.716,15,15V237.395z"></path>
	</g>
</g>
<g>
</g>
<g>
</g>
<g>
</g>
<g>
</g>
<g>
</g>
<g>
</g>
<g>
</g>
<g>
</g>
<g>
</g>
<g>
</g>
<g>
</g>
<g>
</g>
<g>
</g>
<g>
</g>
<g>
</g>
</svg><style>@media (prefers-color-scheme: light) { :root { filter: none; } }
</style></svg>